Coordinates
version=1
nRows=11
nColumns=36
inDegrees=yes

Units are S.I. units (second, meters, Newtons, ...)
If the header above contains a line with 'inDegrees', this indicates whether rotational values are in degrees (yes) or radians (no).

endheader
time	pelvis_tilt	pelvis_list	pelvis_rotation	pelvis_tx	pelvis_ty	pelvis_tz	hip_flexion_r	hip_adduction_r	hip_rotation_r	knee_angle_r	knee_angle_r_beta	ankle_angle_r	subtalar_angle_r	mtp_angle_r	hip_flexion_l	hip_adduction_l	hip_rotation_l	knee_angle_l	knee_angle_l_beta	ankle_angle_l	subtalar_angle_l	mtp_angle_l	lumbar_extension	lumbar_bending	lumbar_rotation	arm_flex_r	arm_add_r	arm_rot_r	elbow_flex_r	pro_sup_r	arm_flex_l	arm_add_l	arm_rot_l	elbow_flex_l	pro_sup_l
      0.00000000	     -1.10108293	      0.24775057	     -8.83803705	     -0.09163424	      1.30395572	     -0.10101604	      0.49140016	      0.41731887	      0.49341564	      4.57997610	      0.07993566	      7.09912152	     -7.40369259	     -6.52203196	      1.75350360	     -0.16283392	      2.55621632	      6.13290118	      0.10703932	      8.17637673	     -5.68056418	     -6.52203196	     -7.19313408	      0.00167899	      0.89898237	      8.50105653	     -8.68539722	      9.37422348	     19.15152257	     86.48080593	      3.48123702	     -8.42177229	      0.11938828	     23.59150571	     87.62453941
      0.01666670	     -1.18096158	      0.28394286	     -8.44393034	     -0.09184366	      1.30255632	     -0.10237181	     -0.51897241	      0.47146921	      1.51956507	      2.82775794	      0.04935369	      8.58702391	     -6.64674860	     -6.98818559	      1.10792042	     -0.19528944	      1.62928417	      4.79570599	      0.08370086	      7.63450798	     -5.93788186	     -6.98818559	     -7.04598193	      0.08511933	      1.63544099	      8.93078126	     -8.79031745	      7.88689210	     18.36808071	     93.95053251	      4.12526140	     -8.40396804	      2.06367059	     22.56649785	     92.54698718
      0.03333330	     -1.38399983	      0.08063154	     -8.77024093	     -0.09248416	      1.30281775	     -0.10239645	     -0.55001348	      0.82625885	      2.04033839	      2.77581945	      0.04844719	      8.30620006	     -6.69916486	     -7.30193902	      0.76035493	     -0.42581025	      1.96592734	      4.04077453	      0.07052482	      7.94084602	     -5.45072889	     -7.30193902	     -6.84479238	      0.55690991	      2.00782727	      9.53926815	     -9.21727914	      9.11249140	     17.84491329	     95.79898907	      4.47724420	     -8.40703042	      3.11619337	     21.80897263	     94.10659744
      0.05000000	     -1.38491322	     -0.00818985	     -8.58108809	     -0.09363381	      1.30527365	     -0.10321017	     -0.41247823	      0.95156336	      1.47754761	      3.08289066	      0.05380659	      8.35994772	     -6.50978609	     -7.32592723	      0.59475250	     -0.49080657	      1.65038175	      3.70501263	      0.06466467	      7.83017940	     -5.00065306	     -7.32592723	     -6.95927494	      0.76967076	      1.84389213	      9.75644574	     -9.27197483	      9.50145051	     17.92156095	     94.31517178	      4.73882492	     -8.43727419	      3.60425334	     21.89186511	     92.67780675
      0.06666670	     -1.44618034	      0.07798240	     -8.65304720	     -0.09445730	      1.30232349	     -0.10333902	     -0.12960782	      0.87186453	      1.23973800	      3.46165656	      0.06041730	      8.71675567	     -6.48200509	     -7.35373738	      0.62009700	     -0.40145625	      0.97437321	      3.61631703	      0.06311664	      7.92342829	     -4.87444939	     -7.35373738	     -6.66710041	      0.83540152	      2.04565803	     10.35909896	     -9.41154536	     11.50990741	     16.86307254	     95.38437221	      5.46605598	     -8.57484644	      6.17213400	     20.34580323	     94.42179912
      0.08333330	     -1.22817290	      0.16240433	     -8.86007644	     -0.09527803	      1.30277964	     -0.10377107	     -0.22813467	      0.78292903	      1.36504331	      3.72747092	      0.06505664	      8.93298167	     -6.65835331	     -7.36217961	      0.40355712	     -0.24867853	      0.74723824	      3.38803884	      0.05913243	      7.91602681	     -4.59974437	     -7.36217961	     -6.90704858	      0.72928493	      2.19444195	     10.48583118	     -9.30733654	     11.68056296	     17.11449894	     94.81443771	      5.55108553	     -8.61058203	      6.36766136	     20.43307185	     93.98724848
      0.10000000	     -1.28179980	      0.32484102	     -8.97295304	     -0.09571833	      1.29925954	     -0.10350258	     -0.10383523	      0.64107488	      1.34165890	      4.00415909	      0.06988576	      9.08431205	     -6.73700033	     -7.37281661	      0.50968828	     -0.06006752	      0.25655467	      3.22862669	      0.05635017	      7.90732795	     -4.15031834	     -7.37281661	     -6.73263886	      0.57723273	      2.64576238	     10.58775327	     -9.44901893	     12.48935457	     17.46866953	     96.65559482	      5.71468747	     -8.86949671	      7.85915445	     20.23658482	     97.21785134
      0.11666670	     -1.16752559	      0.42848325	     -9.04454404	     -0.09605271	      1.29984673	     -0.10368882	     -0.14983711	      0.52516376	      1.36969578	      4.19670090	      0.07324625	      9.16986446	     -6.96333875	     -7.38390648	      0.32929884	      0.07268834	      0.00530490	      3.08771259	      0.05389075	      7.81333640	     -4.04848171	     -7.38390648	     -6.84348699	      0.43433087	      2.72270439	     10.61424378	     -9.34139462	     12.65637053	     17.68978610	     95.53610670	      5.63862859	     -9.00482428	      7.99143477	     20.40984006	     96.23431678
      0.13333330	     -1.16954498	      0.57474579	     -9.21191087	     -0.08618416	      1.30007887	     -0.10482286	     -0.13054604	      0.31543360	      1.52117358	      4.32896915	      0.07555476	      9.23621567	     -7.35552607	     -7.39356131	      0.17226029	      0.19727103	     -0.52063930	      2.99976522	      0.05235578	      7.77163036	     -3.68537105	     -7.39356131	     -6.64939383	      0.24293648	      2.95110604	     10.11023650	     -9.48646929	     13.62197227	     18.22587098	     96.98044888	      5.27627285	     -9.22694441	      9.24696476	     20.73778710	     98.53367026
      0.15000000	     -1.18808245	      0.59085174	     -9.29269636	     -0.09645939	      1.29768794	     -0.10352854	     -0.11482745	      0.30988115	      1.47228868	      4.37519013	      0.07636147	      9.27741184	     -7.38812840	     -7.39374838	      0.20948857	      0.16653559	     -0.55060869	      3.08400068	      0.05382597	      7.79875213	     -3.70911299	     -7.39374838	     -6.62640045	      0.20988798	      2.93432913	     10.07618107	     -9.43642134	     13.62900713	     18.26132493	     96.96349792	      5.28820031	     -9.23663809	      9.24876969	     20.76979204	     98.52018133
      0.16666670	     -1.14318013	      0.66580071	     -9.29451258	     -0.08622107	      1.30443901	     -0.10463970	     -0.38362757	      0.23201327	      1.49668725	      4.34971735	      0.07591689	      9.42413876	     -7.47869368	     -7.39417150	      0.01895554	      0.21551080	     -0.69355807	      3.04315489	      0.05311307	      7.71908096	     -3.76737318	     -7.39417150	     -6.38967320	      0.05070474	      2.96801956	      9.73810768	     -9.30294705	     13.69170709	     18.21743149	     97.01928248	      4.98978074	     -9.26498026	      9.31002478	     20.70027924	     98.61273832
